<?xml version="1.0" standalone="no"?>
<!DOCTYPE svg PUBLIC "-//W3C//DTD SVG 20010904//EN"
 "http://www.w3.org/TR/2001/REC-SVG-20010904/DTD/svg10.dtd">
<svg version="1.0" xmlns="http://www.w3.org/2000/svg"
 width="700.000000pt" height="700.000000pt" viewBox="0 0 700.000000 700.000000"
 preserveAspectRatio="xMidYMid meet">
<metadata>
Created by potrace 1.14, written by Peter Selinger 2001-2017
</metadata>
<g transform="translate(0.000000,700.000000) scale(0.100000,-0.100000)"
fill="#000000" stroke="none">
<path d="M2224 5493 c-7 -2 -20 -49 -30 -104 -17 -92 -20 -100 -44 -105 -91
-19 -126 -43 -216 -148 -40 -46 -43 -47 -65 -32 -32 20 -77 25 -114 13 -16 -6
-70 -34 -120 -62 -123 -72 -124 -72 -164 -30 -38 41 -43 39 -121 -30 -48 -43
-55 -45 -106 -30 -18 6 -29 -4 -65 -57 -38 -53 -51 -64 -84 -72 -88 -18 -139
-39 -221 -87 -131 -78 -163 -89 -261 -94 -132 -7 -184 -15 -228 -34 -45 -20
-98 -76 -119 -126 -18 -43 -48 -62 -114 -69 -83 -10 -88 -15 -112 -119 -35
-151 -52 -139 200 -143 576 -10 741 -11 793 -3 31 5 138 32 237 59 278 77 329
87 423 85 76 -3 223 -12 302 -20 17 -1 68 -5 115 -9 47 -4 105 -9 130 -11 45
-4 109 -9 271 -20 130 -9 139 -12 139 -46 0 -28 20 -32 62 -14 46 19 54 15
100 -44 44 -57 58 -90 58 -136 0 -19 4 -37 10 -40 5 -3 49 -8 97 -10 154 -7
313 -14 493 -21 151 -6 202 -8 291 -13 22 -1 88 -47 146 -101 42 -39 125 -114
252 -225 18 -16 39 -35 45 -40 6 -6 97 -87 201 -180 105 -93 201 -179 214
-192 43 -42 83 -40 175 6 42 22 46 21 205 -9 84 -16 107 -13 144 19 18 16 41
29 52 28 20 -2 38 29 123 210 36 78 53 101 111 152 38 34 77 61 88 61 28 0
110 29 122 44 7 9 3 23 -15 49 -23 35 -24 53 0 23 6 -8 22 -18 36 -21 21 -5
41 5 102 49 42 31 85 56 95 56 11 0 55 9 98 20 70 18 122 26 178 29 9 1 17 8
17 16 0 21 22 19 43 -5 25 -29 47 -25 54 10 l6 30 32 -20 c52 -32 40 -40 188
118 26 28 47 57 47 64 0 7 -15 23 -32 35 -24 17 -35 20 -45 12 -7 -6 -11 -15
-8 -19 3 -5 -7 -12 -22 -18 -26 -8 -29 -7 -38 26 -9 33 -11 34 -27 19 -9 -9
-18 -21 -20 -27 -2 -6 -28 -11 -58 -12 -40 0 -65 -7 -92 -24 -41 -26 -65 -29
-119 -14 -37 10 -118 73 -108 84 3 3 34 -10 70 -29 89 -48 82 -49 212 34 72
46 77 57 53 112 -5 11 3 21 29 34 59 32 47 51 -52 81 -245 73 -345 112 -316
121 5 2 67 -14 138 -35 72 -20 138 -36 148 -34 19 4 20 29 2 77 -4 11 14 -4
40 -33 l47 -52 34 21 c19 11 34 17 34 12 0 -4 11 -21 24 -38 24 -29 25 -29 39
-11 13 18 16 18 78 3 35 -9 73 -15 84 -12 11 2 28 4 37 4 23 1 91 63 110 99
58 113 57 112 82 101 53 -24 117 43 119 125 1 75 -18 125 -69 183 l-29 32 -44
-19 c-24 -11 -49 -20 -55 -20 -24 0 -56 -41 -56 -70 0 -17 -3 -30 -8 -30 -4 0
-7 29 -6 65 0 35 -3 69 -7 76 -8 14 -126 13 -182 -2 -27 -7 -50 -6 -85 4 -26
7 -57 12 -70 11 -37 -2 -13 12 61 36 40 13 67 27 67 36 0 10 6 11 26 4 32 -12
47 -4 41 22 -4 15 -2 18 11 13 16 -7 39 -9 74 -6 28 2 49 30 42 57 -8 30 -6
30 52 0 26 -13 54 -22 61 -19 8 3 28 -11 48 -33 52 -60 55 -26 10 104 -51 143
-60 161 -84 155 -14 -4 -26 8 -50 51 -18 31 -36 58 -40 60 -4 3 -765 7 -1692
10 -1747 6 -2581 12 -2684 20 -33 2 -65 2 -71 -1z m4002 -514 c3 -5 -6 -9 -20
-9 -16 0 -26 6 -26 14 0 15 36 11 46 -5z m476 -190 c-4 -24 -7 -28 -13 -16 -5
8 -6 22 -3 31 11 27 21 17 16 -15z"/>
<path d="M1408 3891 c-26 -10 -75 -24 -109 -30 -34 -6 -77 -19 -95 -30 -34
-20 -93 -39 -142 -46 -118 -16 -203 -56 -268 -128 -50 -55 -79 -110 -70 -133
3 -8 31 -30 63 -51 32 -20 81 -55 108 -78 57 -46 82 -60 143 -75 40 -10 46
-16 69 -68 38 -88 73 -155 93 -177 10 -11 33 -43 52 -71 38 -59 68 -86 153
-137 67 -40 110 -82 149 -145 19 -30 40 -49 70 -62 63 -26 114 -75 126 -120 5
-20 23 -55 40 -76 101 -133 114 -146 185 -180 73 -36 95 -56 95 -86 0 -11 16
-53 35 -94 19 -41 35 -86 35 -100 0 -47 27 -92 72 -120 55 -34 98 -74 98 -91
0 -7 4 -13 9 -13 15 0 25 -59 22 -132 -2 -60 0 -69 26 -97 18 -19 41 -32 66
-36 21 -3 52 -12 68 -21 38 -19 64 -11 79 26 7 17 19 30 27 30 15 0 98 53 108
70 3 5 -9 25 -26 44 -17 20 -26 36 -19 36 15 0 53 -20 62 -34 8 -13 108 17
137 42 33 28 37 66 9 88 -13 11 -24 27 -26 37 -3 17 -1 17 25 4 40 -20 118 -8
168 26 22 15 47 27 56 27 36 0 119 31 119 45 0 8 7 15 16 15 25 0 71 31 83 56
5 13 30 33 53 45 52 26 168 108 168 118 0 4 -5 12 -12 19 -8 8 -8 15 2 27 14
17 46 20 55 6 3 -5 21 -8 40 -5 26 3 49 18 90 59 30 30 63 55 73 55 30 0 42
22 46 84 5 86 51 169 149 269 79 81 177 147 239 162 24 6 37 21 44 52 3 15
-33 51 -132 133 -43 36 -90 75 -104 87 -30 26 -367 308 -395 331 -12 10 -45
37 -75 62 -69 57 -97 75 -135 84 -16 5 -127 10 -245 12 -391 7 -528 12 -539
19 -6 3 -11 25 -11 47 0 37 -6 47 -59 100 -54 54 -60 58 -85 48 -38 -14 -44
-13 -51 11 -10 31 -37 36 -230 43 -99 4 -238 9 -310 11 -278 10 -391 15 -415
19 -14 3 -46 -3 -72 -13z"/>
</g>
</svg>
