<svg id="Layer_1" data-name="Layer 1" xmlns="http://www.w3.org/2000/svg" viewBox="0 0 150 150"><defs><style>.cls-1{fill:#1da7e0;}.cls-2{fill:#002361;}.cls-3{fill:#2f5182;}.cls-4{fill:#177fbf;}</style></defs><polygon class="cls-1" points="87.54 99.31 103.27 101.23 103.27 111.29 85.43 109.11 87.54 99.31"/><path class="cls-2" d="M116.42,85.5c-10.26,0-11.51-.3-12.15,1l-2.39,5a1.55,1.55,0,0,0-.15.66v33.38a5,5,0,0,0,5,5h9.7a5,5,0,0,0,5-5V90.49A5,5,0,0,0,116.42,85.5Z"/><path class="cls-3" d="M115,95.67a1.61,1.61,0,0,0,.48-.08l8.29-2.67a1.54,1.54,0,1,0-1-2.94l-8.29,2.68a1.54,1.54,0,0,0,.47,3Z"/><path class="cls-3" d="M108.1,110.09a1.6,1.6,0,0,1-.47-.08l-8.3-2.67a1.54,1.54,0,0,1,1-2.94l8.3,2.68a1.54,1.54,0,0,1-.48,3Z"/><path class="cls-3" d="M108.1,117.3a1.6,1.6,0,0,1-.47-.08l-8.3-2.67a1.54,1.54,0,0,1,1-2.94l8.3,2.68a1.54,1.54,0,0,1-.48,3Z"/><path class="cls-3" d="M108.1,124.51a1.6,1.6,0,0,1-.47-.08l-8.29-2.67a1.54,1.54,0,1,1,.94-2.94l8.3,2.68a1.54,1.54,0,0,1-.48,3Z"/><path class="cls-3" d="M108.1,102.88a1.6,1.6,0,0,1-.47-.08l-8.29-2.67a1.54,1.54,0,1,1,.94-2.94l8.3,2.68a1.54,1.54,0,0,1-.48,3Z"/><path class="cls-3" d="M108.1,95.67a1.6,1.6,0,0,1-.47-.08l-8.3-2.67a1.54,1.54,0,0,1,1-2.94l8.3,2.68a1.54,1.54,0,0,1-.48,3Z"/><path class="cls-3" d="M115,110.09a1.61,1.61,0,0,0,.48-.08l8.29-2.67a1.54,1.54,0,1,0-1-2.94l-8.29,2.68a1.54,1.54,0,0,0,.47,3Z"/><path class="cls-3" d="M115,117.3a1.61,1.61,0,0,0,.48-.08l8.29-2.67a1.54,1.54,0,1,0-1-2.94l-8.29,2.68a1.54,1.54,0,0,0,.47,3Z"/><path class="cls-3" d="M115,124.51a1.61,1.61,0,0,0,.48-.08l8.29-2.67a1.54,1.54,0,1,0-1-2.94l-8.29,2.68a1.54,1.54,0,0,0,.47,3Z"/><path class="cls-3" d="M115,102.88a1.61,1.61,0,0,0,.48-.08l8.29-2.67a1.54,1.54,0,1,0-1-2.94l-8.29,2.68a1.54,1.54,0,0,0,.47,3Z"/><polygon class="cls-1" points="59.37 99.31 43.64 101.23 43.64 111.29 61.48 109.11 59.37 99.31"/><path class="cls-2" d="M45,91.57l-2.39-5a1.51,1.51,0,0,0-.92-.81,4.93,4.93,0,0,0-1.52-.24H30.5a5,5,0,0,0-5,5v35.12a5,5,0,0,0,5,5h9.7a5,5,0,0,0,5-5V92.23A1.55,1.55,0,0,0,45,91.57Z"/><path class="cls-4" d="M92.21,49.9a1.54,1.54,0,0,1-1.54-1.54V43.05a7.37,7.37,0,0,1,3.68-6.36l1-.55a1.54,1.54,0,0,1,1.54,2.67c-.86.5-3.08,1.49-3.08,4.24v5.31A1.54,1.54,0,0,1,92.21,49.9Zm-36-1.54V43.05a7.36,7.36,0,0,0-3.67-6.36l-1-.55a1.54,1.54,0,1,0-1.55,2.67c.86.5,3.09,1.49,3.09,4.24v5.31a1.54,1.54,0,1,0,3.08,0Z"/><path d="M78.44,61.47h-10A1.54,1.54,0,0,1,66.94,60c-.39-5.19-.56-5.36,0-6a1.52,1.52,0,0,1,1.13-.5H78.8a1.55,1.55,0,0,1,1.54,1.66L80,60A1.55,1.55,0,0,1,78.44,61.47Zm-8.53-3.09H77l.13-1.75H69.77Z"/><path class="cls-2" d="M101.53,84.63c-30,4.79-27.93,4.51-28.38,4.44L45.38,84.63A15,15,0,0,1,33.2,73.29l-1.63-6.93a4.65,4.65,0,0,1,4.53-5.72H54.79c4.15,0,4.62,4.12,7.47,4.12H84.65c2.83,0,3.35-4.12,7.47-4.12h18.69a4.65,4.65,0,0,1,4.53,5.72l-1.63,6.93A14.94,14.94,0,0,1,101.53,84.63Z"/><path class="cls-1" d="M54.19,78.93H50.31a9.26,9.26,0,0,1-9.26-9.26v-.81a2,2,0,0,1,2-2h7.19a6,6,0,0,1,6,6v4.12A2,2,0,0,1,54.19,78.93Z"/><path class="cls-1" d="M92.72,78.93H96.6a9.26,9.26,0,0,0,9.27-9.26v-.81a2,2,0,0,0-2-2H96.65a6,6,0,0,0-6,6v4.12A2,2,0,0,0,92.72,78.93Z"/><path class="cls-3" d="M64.78,81.17c9.16,1.47,8.6,1.4,8.85,1.36l8.5-1.36a1.09,1.09,0,0,0,.92-.92l.88-5.63a1.2,1.2,0,0,0-1.3-1.33c-5.87.52-8.42.88-12.72.5l-5.63-.5A1.19,1.19,0,0,0,63,74.62l.87,5.63A1.1,1.1,0,0,0,64.78,81.17Z"/><circle class="cls-4" cx="95.7" cy="71.24" r="3.48"/><circle class="cls-4" cx="51.22" cy="71.24" r="3.48"/><path class="cls-3" d="M62.26,64.76H84.65a3.49,3.49,0,0,0,2.63-1.43l-.46-1.92a8.24,8.24,0,0,0-8-6.32H68.11a8.23,8.23,0,0,0-8,6.32l-.46,1.92A3.46,3.46,0,0,0,62.26,64.76Z"/><path class="cls-3" d="M114.23,51.18H98V44.74h16.26a1,1,0,0,1,1,1V50.2A1,1,0,0,1,114.23,51.18Z"/><path class="cls-1" d="M89.88,48.38c-2.42,2.71-3.12,4-5.28,4l-.15.53L78.8,54v1.07a8.25,8.25,0,0,1,5.85,2.43,8.93,8.93,0,0,0,6.66-3c3.51-4,3.12-4,6.66-4V45.38C96.5,45.38,92.83,45.06,89.88,48.38Z"/><path class="cls-2" d="M112.46,28.14a5.68,5.68,0,0,0-7.78-2.09l-5.53,3.2a5.62,5.62,0,0,0-2.58,3.22,4,4,0,0,1-1.64,2.22,2.13,2.13,0,0,0-.63,2.8l1,1.7a2.13,2.13,0,0,0,2.89.79,4,4,0,0,1,2.59-.25,5.58,5.58,0,0,0,4.08-.62l5.54-3.2A5.69,5.69,0,0,0,112.46,28.14Z"/><path class="cls-3" d="M32.69,51.18H49V44.74H32.69a1,1,0,0,0-1,1V50.2A1,1,0,0,0,32.69,51.18Z"/><path class="cls-1" d="M57,48.38c2.41,2.71,3.12,4,5.27,4l.15.53L68.11,54v1.07a8.27,8.27,0,0,0-5.85,2.43,8.9,8.9,0,0,1-6.65-3c-3.51-4-3.12-4-6.66-4V45.38C50.42,45.38,54.09,45.06,57,48.38Z"/><path class="cls-2" d="M51.85,34.59c-2.05-1.41-1.08-3.61-4.08-5.34l-5.54-3.2a5.69,5.69,0,0,0-5.7,9.86l5.54,3.2c3.06,1.77,4.3-.27,6.82.94a2.12,2.12,0,0,0,2.74-.86l1-1.7A2.14,2.14,0,0,0,51.85,34.59Z"/><path class="cls-4" d="M77.31,59.93H69.6a1.22,1.22,0,0,1-1.21-1.13l-.28-3.71H78.8l-.28,3.71A1.21,1.21,0,0,1,77.31,59.93Z"/><path class="cls-2" d="M56.6,86.42l5.09,23.68a2.12,2.12,0,0,0,2.06,1.67H83.16a2.12,2.12,0,0,0,2.06-1.67l5.09-23.68L73.76,89.07C73.33,89.14,74.48,89.28,56.6,86.42Z"/><path class="cls-4" d="M101.53,84.63,90.31,86.42,88.46,95l13.05-1.45a2.15,2.15,0,0,0,1.71-1.22l5.06-10.64A15,15,0,0,1,101.53,84.63Z"/><path class="cls-3" d="M38.81,95.67a1.61,1.61,0,0,0,.48-.08l8.29-2.67A1.54,1.54,0,0,0,46.63,90l-8.29,2.68a1.54,1.54,0,0,0,.47,3Z"/><path class="cls-4" d="M56.6,86.42,45.38,84.63a15,15,0,0,1-6.74-2.92L43.7,92.35a2.13,2.13,0,0,0,1.7,1.22L58.45,95Z"/><path class="cls-3" d="M98,54.46a1.54,1.54,0,0,1-1.55-1.54V43a1.55,1.55,0,0,1,3.09,0v9.91A1.54,1.54,0,0,1,98,54.46Z"/><path class="cls-3" d="M49,54.46a1.55,1.55,0,0,1-1.55-1.54V43a1.55,1.55,0,0,1,3.09,0v9.91A1.54,1.54,0,0,1,49,54.46Z"/><path class="cls-3" d="M86.91,45.24l-4.09-2c-.23-.88-.32-1.8-1.37-2.06l-7.63-1.84a1.46,1.46,0,0,0-.72,0l-7.63,1.84c-1.06.26-1.15,1.18-1.38,2.07l-4.09,2a1.55,1.55,0,0,0-.81,1.81L61,53.33a1.57,1.57,0,0,0,1.18,1.09C74,56.76,73.34,56.68,73.76,56.6l11-2.18a1.56,1.56,0,0,0,1.18-1.09l1.79-6.28A1.53,1.53,0,0,0,86.91,45.24Z"/><path class="cls-2" d="M80.38,73.49l-3.08.27c-.44,8.56-.42,8-.39,8.25l3.08-.5C80.42,73.12,80.4,73.69,80.38,73.49Z"/><path class="cls-2" d="M69.61,73.76l-3.08-.27c0,.2,0-.37.39,8L70,82C70,81.78,70.05,82.31,69.61,73.76Z"/><path class="cls-2" d="M75,82.31V74l0,0c-1,0-2,0-3,0l0,0v8.36A5.25,5.25,0,0,0,75,82.31Z"/><path class="cls-3" d="M31.88,110.09a1.5,1.5,0,0,1-.47-.08l-8.3-2.67a1.54,1.54,0,0,1,.95-2.94l8.29,2.68a1.54,1.54,0,0,1-.47,3Z"/><path class="cls-3" d="M31.88,117.3a1.5,1.5,0,0,1-.47-.08l-8.3-2.67a1.54,1.54,0,0,1,.95-2.94l8.29,2.68a1.54,1.54,0,0,1-.47,3Z"/><path class="cls-3" d="M31.88,124.51a1.5,1.5,0,0,1-.47-.08l-8.3-2.67a1.54,1.54,0,0,1,.95-2.94l8.29,2.68a1.54,1.54,0,0,1-.47,3Z"/><path class="cls-3" d="M31.88,102.88a1.5,1.5,0,0,1-.47-.08l-8.3-2.67a1.54,1.54,0,0,1,.95-2.94l8.29,2.68a1.54,1.54,0,0,1-.47,3Z"/><path class="cls-3" d="M31.88,95.67a1.5,1.5,0,0,1-.47-.08l-8.3-2.67A1.54,1.54,0,0,1,24.06,90l8.29,2.68a1.54,1.54,0,0,1-.47,3Z"/><path class="cls-3" d="M38.81,110.09a1.61,1.61,0,0,0,.48-.08l8.29-2.67a1.54,1.54,0,0,0-.95-2.94l-8.29,2.68a1.54,1.54,0,0,0,.47,3Z"/><path class="cls-3" d="M38.81,117.3a1.61,1.61,0,0,0,.48-.08l8.29-2.67a1.54,1.54,0,0,0-.95-2.94l-8.29,2.68a1.54,1.54,0,0,0,.47,3Z"/><path class="cls-3" d="M38.81,124.51a1.61,1.61,0,0,0,.48-.08l8.29-2.67a1.54,1.54,0,0,0-.95-2.94l-8.29,2.68a1.54,1.54,0,0,0,.47,3Z"/><path class="cls-3" d="M38.81,102.88a1.61,1.61,0,0,0,.48-.08l8.29-2.67a1.54,1.54,0,0,0-.95-2.94l-8.29,2.68a1.54,1.54,0,0,0,.47,3Z"/></svg>