<svg id="Layer_1" data-name="Layer 1" xmlns="http://www.w3.org/2000/svg" viewBox="0 0 150 150"><defs><style>.cls-1{fill:#002361;}.cls-2{fill:#1da7e0;}.cls-3{fill:#2f5182;}.cls-4{fill:#59789e;}</style></defs><path class="cls-1" d="M129.16,79.5A15.26,15.26,0,0,0,126,71c-4.27-5.56-5.1-10-5.1-10a122.27,122.27,0,0,0-8.53-18.36,14.69,14.69,0,0,0-10.79-7.11c-9-1.17-37.3-1.17-46.34,0a14.74,14.74,0,0,0-10.79,7.11A122.27,122.27,0,0,0,35.88,61s-.83,4.41-5.1,10a15.33,15.33,0,0,0-3.2,8.54c-.32,6.73,1.63,8.21,3.37,23.44a2.37,2.37,0,0,0,2.36,2.1h90.13a2.37,2.37,0,0,0,2.36-2.1c.49-4.27,1.94-12.93,1.94-12.93A31.74,31.74,0,0,0,129.16,79.5Z"/><path class="cls-2" d="M119,60.63a129.27,129.27,0,0,0-8-17,13.24,13.24,0,0,0-9.59-6.45c-9.06-1.21-36.93-1.2-45.93,0a13.28,13.28,0,0,0-9.6,6.45,133.84,133.84,0,0,0-8.06,17A516.84,516.84,0,0,0,119,60.63Z"/><path class="cls-3" d="M115.12,68.29a14.65,14.65,0,0,0-2.79,1.23,36.2,36.2,0,0,1-4.53,2.17c-2.6,1-3,2.46-3,2.46l-.22.3a4.16,4.16,0,0,0,4.11,6.34,51.1,51.1,0,0,0,11.35-3A4.06,4.06,0,0,0,122.45,75c0-.12.06-.25.08-.36A5.7,5.7,0,0,0,115.12,68.29Z"/><path class="cls-4" d="M120.53,91.76H114.9a1,1,0,0,0-.67,1.62L119.86,99a1,1,0,0,0,1.62-.67V92.71A1,1,0,0,0,120.53,91.76Z"/><path class="cls-1" d="M125.8,102.94a2.38,2.38,0,0,1-2.37,2.1H112.61v6.29a4,4,0,0,0,4,4h6.8a4,4,0,0,0,4-4V91.66C127,94.38,126.15,99.82,125.8,102.94Z"/><path class="cls-1" d="M130.54,56.23a3.24,3.24,0,0,0-3.2-2.45h-2.71a3.15,3.15,0,0,0-3.15,3.15v1.94H120l.82,2H124a11.29,11.29,0,0,0,4.75-1A3.15,3.15,0,0,0,130.54,56.23Z"/><circle class="cls-4" cx="116.91" cy="73.36" r="3.96"/><circle class="cls-4" cx="108.94" cy="76.49" r="2.91"/><polygon class="cls-3" points="101.4 76.49 96.85 84.41 59.9 84.41 55.35 76.49 101.4 76.49"/><path class="cls-3" d="M52.21,74.45l-.22-.3s-.45-1.48-3-2.46a36.33,36.33,0,0,1-4.54-2.17,14.65,14.65,0,0,0-2.79-1.23,5.71,5.71,0,0,0-7.42,6.34c0,.12,0,.24.08.36a4.08,4.08,0,0,0,2.47,2.77,50.82,50.82,0,0,0,11.34,3A4.16,4.16,0,0,0,52.21,74.45Z"/><path class="cls-4" d="M41.84,91.76H36.22a.94.94,0,0,0-.95.95v5.63a1,1,0,0,0,1.62.67l5.63-5.63A1,1,0,0,0,41.84,91.76Z"/><path class="cls-3" d="M115.84,101.58c-5.86-10.14-12.6-9.82-12.6-9.82H53.5s-6.73-.32-12.59,9.82H30.78l.12,1.3A2.38,2.38,0,0,0,33.27,105h90.2a2.37,2.37,0,0,0,2.37-2.16l.13-1.3Z"/><path class="cls-1" d="M33.31,105.05A2.38,2.38,0,0,1,31,102.94c-.36-3.11-1.23-8.56-1.67-11.28v19.67a4,4,0,0,0,4,4h6.8a4,4,0,0,0,4-4v-6.28Z"/><path class="cls-1" d="M35.27,58.87V56.93a3.16,3.16,0,0,0-3.15-3.15H29.4a3.25,3.25,0,0,0-3.2,2.45A3.15,3.15,0,0,0,28,59.79a11.53,11.53,0,0,0,4.76,1h3.16l.83-2H35.27Z"/><circle class="cls-4" cx="39.83" cy="73.36" r="3.96"/><circle class="cls-4" cx="47.81" cy="76.49" r="2.91"/><path class="cls-1" d="M99.43,94.53H57.31a1.19,1.19,0,0,0,0,2.38H99.43a1.19,1.19,0,0,0,0-2.38Z"/><path class="cls-1" d="M99.43,99.29H57.31a1.19,1.19,0,0,0,0,2.38H99.43a1.19,1.19,0,0,0,0-2.38Z"/></svg>