<svg id="Layer_1" data-name="Layer 1" xmlns="http://www.w3.org/2000/svg" viewBox="0 0 150 150"><defs><style>.cls-1{fill:#002361;}.cls-2{fill:#2f5182;}.cls-3{fill:#177fbf;}.cls-4{fill:#1da7e0;}.cls-5{fill:none;}</style></defs><path class="cls-1" d="M78.58,84.89l51.07-43.44-6.84-8.27a14.16,14.16,0,0,0-20-1.65L99,34.81,77.87,24,32.2,62.72l6.91,21.45Zm.23-52.72,14.53,7.42L72.86,56.94,63.21,45.39ZM45.08,80.47,40.09,65,58,49.81l9.66,11.54Z"/><circle class="cls-2" cx="110.02" cy="57.42" r="12.86"/><path class="cls-3" d="M133.23,95.88H16.77v-15h3.44A14.25,14.25,0,0,0,27.8,78.9a20.82,20.82,0,0,1,10.68-2.67A20.88,20.88,0,0,1,49.16,78.9a14.19,14.19,0,0,0,7.58,1.93,14.19,14.19,0,0,0,7.58-1.93A20.85,20.85,0,0,1,75,76.23,20.85,20.85,0,0,1,85.68,78.9a15.87,15.87,0,0,0,15.17,0,22.68,22.68,0,0,1,21.35,0,14.25,14.25,0,0,0,7.59,1.93h3.44Z"/><path class="cls-4" d="M133.23,125H16.77V94.48h3.44a14.34,14.34,0,0,0,7.59-1.93,20.82,20.82,0,0,1,10.68-2.67,20.88,20.88,0,0,1,10.68,2.67,14.28,14.28,0,0,0,7.58,1.93,14.28,14.28,0,0,0,7.58-1.93A20.85,20.85,0,0,1,75,89.88a20.85,20.85,0,0,1,10.68,2.67,15.87,15.87,0,0,0,15.17,0,22.68,22.68,0,0,1,21.35,0,14.34,14.34,0,0,0,7.59,1.93h3.44Z"/><path class="cls-5" d="M72.86,56.94,75,55.13V35.4l-11.79,10Z"/><path class="cls-5" d="M40.09,65l5,15.49L67.66,61.35,58,49.81Z"/><path class="cls-5" d="M93.34,39.59,78.81,32.17,75,35.4V55.13Z"/></svg>