<svg id="Layer_1" data-name="Layer 1" xmlns="http://www.w3.org/2000/svg" viewBox="0 0 150 150"><defs><style>.cls-1{fill:#002361;}.cls-2{fill:#2f5182;}.cls-3{fill:#f0a578;}.cls-4{fill:#ffbe8f;}.cls-5{fill:#1da7e0;}.cls-6{fill:#ffd2aa;}.cls-7{fill:#0fa7da;}.cls-8{fill:#59789e;}.cls-9{fill:#5487ba;}</style></defs><path class="cls-1" d="M94.34,59H32.17a3.41,3.41,0,0,1-2.45-1,3.46,3.46,0,0,1-1-2.45,34.54,34.54,0,0,1,69.08,0A3.45,3.45,0,0,1,94.34,59Z"/><path class="cls-2" d="M94.34,59a3.45,3.45,0,0,0,3.45-3.47A34.52,34.52,0,0,0,63.25,21.21V59Z"/><path class="cls-3" d="M93.2,69.58H82.83V53.45H93.2a8.07,8.07,0,0,1,0,16.13Z"/><path class="cls-4" d="M43.67,69.58H33.31a8.07,8.07,0,0,1,0-16.13H43.67Z"/><path class="cls-5" d="M107,139.14H19.49A3.46,3.46,0,0,1,16,135.69V126a31.13,31.13,0,0,1,31.1-31.09H79.38A31.13,31.13,0,0,1,110.47,126v9.68A3.45,3.45,0,0,1,107,139.14Z"/><path class="cls-4" d="M63.25,115.65A12.68,12.68,0,0,1,50.58,103V83.4H75.92V103A12.67,12.67,0,0,1,63.25,115.65Z"/><path class="cls-6" d="M63.1,94.92A26.69,26.69,0,0,1,36.76,68.13V53.45H48.34a13.18,13.18,0,0,0,11.82-7.29,3.46,3.46,0,0,1,4.1-1.77,3.52,3.52,0,0,1,2.12,1.83,13.14,13.14,0,0,0,11.78,7.23H89.74v15A26.53,26.53,0,0,1,63.1,94.92Z"/><path class="cls-7" d="M41.37,139.14H34.46V123.71a3.46,3.46,0,1,1,6.91,0Z"/><path class="cls-1" d="M108.63,94.22,89.05,111v28.13h35.7a3.46,3.46,0,0,0,3.46-3.45V111Z"/><path class="cls-8" d="M113.66,139.14H103.6V120.7a5,5,0,1,1,10.06,0Z"/><path class="cls-9" d="M130.51,116.44a3.46,3.46,0,0,1-2.25-.84L108.63,98.78,89,115.6a3.45,3.45,0,1,1-4.5-5.24L106.38,91.6a3.46,3.46,0,0,1,4.5,0l21.88,18.76a3.45,3.45,0,0,1-2.25,6.08Z"/></svg>