<?xml version="1.0" encoding="utf-8"?>
<!-- Generator: Adobe Illustrator 25.4.1, SVG Export Plug-In . SVG Version: 6.00 Build 0)  -->
<svg version="1.1" id="Layer_1" xmlns="http://www.w3.org/2000/svg" xmlns:xlink="http://www.w3.org/1999/xlink" x="0px" y="0px"
	 viewBox="0 0 150 150" style="enable-background:new 0 0 150 150;" xml:space="preserve">
<style type="text/css">
	.st0{fill:#1DA7E0;}
</style>
<g>
	<g>
		<path class="st0" d="M144.1,109.2l-20.4-20.4c-7.3-7.3-19.7-4.4-22.6,5.1c-2.2,6.6-9.5,10.2-16,8.7C70.5,99,50.9,80,47.2,64.7
			c-2.2-6.6,2.2-13.8,8.7-16c9.5-2.9,12.4-15.3,5.1-22.6L40.7,5.7c-5.8-5.1-14.6-5.1-19.7,0L7.1,19.6C-6.7,34.1,8.6,72.8,42.8,107
			s72.9,50.3,87.4,35.7l13.8-13.8C149.2,123,149.2,114.3,144.1,109.2z"/>
	</g>
</g>
</svg>
