<?xml version="1.0" encoding="utf-8"?>
<!-- Generator: Adobe Illustrator 25.4.1, SVG Export Plug-In . SVG Version: 6.00 Build 0)  -->
<svg version="1.1" id="Layer_1" xmlns="http://www.w3.org/2000/svg" xmlns:xlink="http://www.w3.org/1999/xlink" x="0px" y="0px"
	 viewBox="0 0 150 150" style="enable-background:new 0 0 150 150;" xml:space="preserve">
<style type="text/css">
	.st0{fill:#1DA7E0;}
</style>
<g>
	<g>
		<path class="st0" d="M144.7,69.4l-52-52c-1.5-1.5-3.5-2.3-5.6-2.3c-2.1,0-4.1,0.8-5.6,2.3l-4.7,4.7c-1.5,1.5-2.3,3.5-2.3,5.6
			c0,2.1,0.8,4.2,2.3,5.6l30.3,30.4H10.8c-4.3,0-7.8,3.4-7.8,7.8v6.7c0,4.3,3.4,8.1,7.8,8.1h96.7l-30.7,30.6
			c-1.5,1.5-2.3,3.4-2.3,5.5c0,2.1,0.8,4.1,2.3,5.5l4.7,4.7c1.5,1.5,3.5,2.3,5.6,2.3c2.1,0,4.1-0.8,5.6-2.3l52-52
			c1.5-1.5,2.3-3.5,2.3-5.6C147,72.9,146.2,70.9,144.7,69.4z"/>
	</g>
</g>
</svg>
