<?xml version="1.0" encoding="utf-8"?>
<!-- Generator: Adobe Illustrator 25.4.1, SVG Export Plug-In . SVG Version: 6.00 Build 0)  -->
<svg version="1.1" id="Layer_1" xmlns="http://www.w3.org/2000/svg" xmlns:xlink="http://www.w3.org/1999/xlink" x="0px" y="0px"
	 viewBox="0 0 150 150" style="enable-background:new 0 0 150 150;" xml:space="preserve">
<style type="text/css">
	.st0{fill:#1DA7E0;}
</style>
<g>
	<g>
		<g>
			<path class="st0" d="M75,1.3c-21.4,0-38.9,17.4-38.9,38.9S53.6,79,75,79s38.9-17.4,38.9-38.9S96.4,1.3,75,1.3z"/>
		</g>
	</g>
	<g>
		<g>
			<path class="st0" d="M123.4,104.4c-10.6-10.8-24.7-16.8-39.7-16.8H66.4c-15,0-29.1,6-39.7,16.8c-10.6,10.8-16.4,24.9-16.4,40
				c0,2.4,1.9,4.3,4.3,4.3h120.9c2.4,0,4.3-1.9,4.3-4.3C139.8,129.4,133.9,115.2,123.4,104.4z"/>
		</g>
	</g>
</g>
</svg>
