<svg id="Layer_1" data-name="Layer 1" xmlns="http://www.w3.org/2000/svg" viewBox="0 0 150 150"><defs><style>.cls-1{fill:#177fbf;}.cls-2{fill:#1da7e0;}.cls-3{fill:#ffd2aa;}.cls-4{fill:#002361;}</style></defs><circle class="cls-1" cx="89.28" cy="54.1" r="35.05"/><circle class="cls-2" cx="89.28" cy="54.1" r="27.26"/><path class="cls-1" d="M95.73,52c-3.22-2.5-7.48-3-8.29-4.47A1.29,1.29,0,0,1,88,46.14a3.62,3.62,0,0,1,3.38.24,3.89,3.89,0,0,0,5.28-5.72A9.78,9.78,0,0,0,93,38.59a3.9,3.9,0,0,0-7.79.09v.17a9,9,0,0,0-4.6,12.48c2.61,4.71,8,5,10.31,6.84.92.71,1,1.31.92,1.71a2.67,2.67,0,0,1-1.53,2c-1.24.59-3.87.19-5.41-.82a3.89,3.89,0,1,0-4.26,6.52,14.67,14.67,0,0,0,4.57,1.92v0a3.9,3.9,0,1,0,7.79,0v-.33c.21-.09.42-.17.63-.27C100.27,65.79,102.07,57,95.73,52Z"/><path class="cls-2" d="M97.54,113.29l-4.37,4.37V99.52a3.9,3.9,0,0,0-7.79,0v18.14L81,113.29a3.9,3.9,0,0,0-5.51,5.51l11,11a3.88,3.88,0,0,0,5.5,0l11-11a3.9,3.9,0,0,0-5.51-5.51Z"/><path class="cls-2" d="M138.59,96.39a3.89,3.89,0,0,0-4.77,2.75l-1.6,6L123.15,89.4a3.89,3.89,0,0,0-6.74,3.9l9.07,15.7-6-1.6a3.9,3.9,0,0,0-2,7.53l15,4a3.89,3.89,0,0,0,4.77-2.75l4-15a3.88,3.88,0,0,0-2.75-4.77Z"/><path class="cls-2" d="M59.05,107.4l-6,1.6,9.07-15.7a3.9,3.9,0,0,0-6.75-3.9l-9.06,15.71-1.6-6a3.9,3.9,0,0,0-7.53,2l4,15A3.89,3.89,0,0,0,46,119l15-4a3.9,3.9,0,0,0-2-7.53Z"/><path class="cls-3" d="M69.81,65.78A9.09,9.09,0,0,1,61,74.86H22.29L22.2,35.21,48.43,21.53a1.27,1.27,0,0,1,.6-.15,1.15,1.15,0,0,1,.37.06l17.9,5.34,0,0A35.25,35.25,0,0,0,55.43,45l-2.56-.67a2.52,2.52,0,0,0-.67-.09,2.61,2.61,0,0,0-2,.9l-6.32,7.3a2.59,2.59,0,0,0,2,4.29H60.72a9.1,9.1,0,0,1,9.09,9.09Z"/><path class="cls-4" d="M20.47,29.43h-8a3.9,3.9,0,0,0-3.9,3.9V78.76a3.9,3.9,0,0,0,3.9,3.9h8a3.9,3.9,0,0,0,3.9-3.9V33.33a3.9,3.9,0,0,0-3.9-3.9Z"/></svg>