<?xml version="1.0" encoding="utf-8"?>
<!-- Generator: Adobe Illustrator 25.4.1, SVG Export Plug-In . SVG Version: 6.00 Build 0)  -->
<svg version="1.1" id="Layer_1" xmlns="http://www.w3.org/2000/svg" xmlns:xlink="http://www.w3.org/1999/xlink" x="0px" y="0px"
	 viewBox="0 0 497.2 56.1" style="enable-background:new 0 0 497.2 56.1;" xml:space="preserve">
<style type="text/css">
	.st0{fill:#FFFFFF;}
	.st1{fill:#3CB4E5;}
</style>
<g>
	<path id="XMLID_167_" class="st0" d="M90.4,0.7c0.6,0,1.1,0,1.7,0c0.5,0,0.5,0.1,0.7,0.6C93,1.6,93.3,2,93.5,2.4
		c0.4-0.3,0.5-0.3,0.7,0.1c0.4,1.1,0.8,2.1,1.2,3.2c0.1,0.2,0.1,0.4-0.1,0.5C95.1,6.3,95,6.1,94.8,6c-0.2-0.2-0.4-0.5-0.6-0.8
		c-0.2,0.3-0.5,0.2-0.7,0.1c-0.4-0.2-0.9-0.5-1.4-0.7c0.1,0.1,0.2,0.2,0.3,0.3c0.2,0.3,0.2,0.5-0.1,0.8c-0.5,0.3-1,0.3-1.6,0
		c0,0.1,0.1,0.2,0.1,0.3c0,0.1,0,0.3-0.1,0.3c0,0.1-0.2,0-0.3,0c-0.2-0.1-0.3-0.1-0.5-0.2c0,0.4-0.2,0.4-0.5,0.5
		c-0.6,0.2-1.3,0.5-1.9,0.7c0.1,0,0.3,0,0.4,0c0.6,0,1.2,0.1,1.7,0.3c0.2,0.1,0.3,0.1,0.4-0.1c0-0.1,0.2-0.1,0.3-0.1
		c0.7,0,1.3-0.1,2-0.1c0.3,0,0.5,0.1,0.5,0.5c0,0.5,0,1.1,0,1.6c0,0.2-0.2,0.4-0.3,0.7c0,0,0.1,0.1,0.3,0.3c0-0.1,0.1-0.2,0.1-0.3
		c0-0.4,0.1-0.8,0.1-1.3c0.1-0.5,0.4-0.7,0.8-0.8c0.4-0.1,0.7-0.2,1-0.4c0.2-0.1,0.3-0.1,0.5,0c1,1,1.5,2.1,1.2,3.5
		c-0.1,0.6-0.7,1.2-1.3,1.2c-0.2,0-0.4-0.2-0.6-0.3c-0.3,0.5-0.6,1.1-0.9,1.7c-0.4,0.7-1,1.2-1.8,1.4c-0.3,0.1-0.7,0-1,0
		c-0.3,0-0.5-0.2-0.8-0.2c-0.2-0.1-0.4-0.1-0.6,0.2c-0.1,0.2-0.3,0.2-0.5-0.1c-0.2-0.2-0.3-0.5-0.4-0.7c-0.1,0.1-0.1,0.1-0.2,0.1
		c-0.5,0.4-0.6,0.4-1.1-0.1c-0.3-0.3-0.5-0.6-0.8-1c0,0-0.1,0.1,0,0.2c0.1,0.2,0.2,0.4,0.2,0.7c0,0.2,0.1,0.4,0,0.5
		c-0.1,0.1-0.3,0.1-0.5,0c-1.1-0.3-2.3-0.6-3.4-1c-0.1,0-0.2-0.1-0.5-0.1c0.3,0.4,0.7,0.6,1.2,0.8c1.3,0.4,2.7,0.8,4,1.2
		c0.2,0.1,0.6,0.1,0.6,0.4c0,0.3-0.3,0.4-0.5,0.5c-0.2,0.1-0.4,0.2-0.5,0.3c0.1,0.2,0.3,0.4,0.3,0.6c0.1,0.2,0,0.5-0.2,0.6
		c-0.7,0.5-1.4,0.9-2.2,1.4c-0.2,0.1-0.5,0-0.8-0.1c-0.5-0.2-1-0.5-1.6-0.8c-0.1,0-0.2-0.1-0.3-0.1c0.5,0.8,1.2,1.3,2.1,1.4
		c0.6,0.1,1,0,1.4-0.4c0.2-0.3,0.5-0.3,0.9-0.2c0.1,0,0.2,0,0.3,0c0.1,0,0.3-0.1,0.4-0.1c0.3,0.1,0.5-0.1,0.6-0.4c0,0,0,0,0-0.1
		c0.1-0.1,0.2-0.2,0.3-0.2c0.1,0,0.2,0.2,0.2,0.3c0,0.2,0,0.4,0.1,0.7c0.3-0.1,0.5-0.2,0.8-0.2c0-0.1,0-0.1,0-0.2
		c0-0.1,0-0.2,0.1-0.3c0.1,0,0.2,0,0.3,0c0.2,0.1,0.5,0.3,0.7,0.5c0.2,0.1,0.2,0.3,0,0.5c-0.8,0.8-1.6,1.7-2.4,2.5
		c-0.2,0.2-0.4,0.1-0.6,0c-0.2-0.2-0.5-0.3-0.7-0.5c0,0.2,0,0.4-0.1,0.6c-0.1,0.1-0.1,0.3-0.3,0.4c-0.1,0-0.3-0.1-0.4-0.2
		C86,22.3,86,22.1,85.9,22c0-0.1-0.2-0.1-0.2-0.1c-0.1,0-0.1,0.1-0.1,0.2c0,0.2-0.1,0.3-0.3,0.3c-1.2,0-2.3,0.3-3.4,0.6
		c-0.2,0.1-0.5,0-0.6,0c-0.6,0.4-1.3,0.9-1.9,1.4c-0.2,0.2-0.5,0.2-0.8,0.1c-0.4-0.1-0.4-0.2-0.5-0.6c-0.2,0-0.2,0.1-0.1,0.3
		c0.2,0.2,0.3,0.4,0.4,0.6c0.2,0.3,0.1,0.5-0.2,0.6c-0.3,0.1-0.7,0.3-1,0.4c-0.1,0-0.2,0.1-0.2,0c-0.4-0.2-0.6,0.1-0.8,0.3
		c-1.8,1.4-1.5,1-2.5,3.3c-0.3,0.7-0.7,1.4-1,2.2c-0.1,0.1-0.2,0.2-0.3,0.3c-0.1,0-0.2-0.1-0.3-0.2c-0.1,0.1-0.2,0.3-0.3,0.4
		c-0.5,0.4-1,0.6-1.6,0.5c-0.7-0.2-1.3-0.3-2-0.4c-0.6-0.1-1.1,0-1.6,0.2c-0.2,0.1-0.4,0.2-0.6,0.3c-0.6,0.3-1.1,0.2-1.6-0.2
		c-1-0.9-2.1-1.9-3.2-2.8c-2.6-2.3-5.2-4.6-7.8-7c-0.5-0.4-1-0.7-1.7-0.7c-3.7-0.1-7.4-0.3-11.1-0.4c-0.6,0-0.7-0.2-0.7-0.7
		c0-0.5-0.1-0.9-0.4-1.3c-0.3-0.4-0.6-0.7-0.9-1.1c-0.1-0.2-0.3-0.2-0.5-0.1c-0.2,0.1-0.4,0.2-0.6,0.2c-0.4,0.1-0.6,0.1-0.6-0.3
		c0-0.4-0.2-0.5-0.6-0.5c-2.8-0.2-5.6-0.4-8.3-0.6c-1.6-0.1-3.1-0.2-4.7-0.3c-0.9-0.1-1.7,0.2-2.6,0.4c-1.8,0.5-3.6,1-5.5,1.5
		c-1,0.3-2,0.3-3.1,0.3c-3.9-0.1-7.7-0.1-11.6-0.2c-0.1,0-0.2,0-0.3,0c0-0.3,0-0.6,0-0.9c0.1-0.7,0.3-1.3,0.4-2
		c0.1-0.4,0.3-0.6,0.7-0.7c0.4-0.1,0.9-0.1,1.3-0.2c0.4,0,0.6-0.2,0.8-0.6c0.5-1.3,1.4-2.2,2.8-2.3c0.6-0.1,1.2-0.1,1.7-0.2
		c0.4,0,0.7,0,1.1-0.1c0.6,0,1.1-0.2,1.6-0.5c0.6-0.4,1.3-0.7,1.9-1.1c0.8-0.4,1.6-0.8,2.5-0.9c0.3,0,0.6-0.2,0.8-0.5
		c0.2-0.4,0.5-0.7,0.7-1.1c0.2-0.3,0.4-0.4,0.8-0.2c0.4,0.2,0.7,0.1,1-0.2c0.3-0.3,0.7-0.6,1-0.9C19.5,6,19.7,6.1,20,6.4
		c0.1,0.1,0.2,0.2,0.2,0.3c0.3,0.4,0.3,0.4,0.7,0.2c0.8-0.5,1.6-0.9,2.4-1.4c0.8-0.4,1.5-0.6,2.3-0.1c0.2,0.1,0.4,0.1,0.6-0.1
		c0.2-0.3,0.4-0.5,0.6-0.8c0.7-0.9,1.5-1.5,2.7-1.6c0.2,0,0.4-0.1,0.4-0.4c0.1-0.8,0.3-1.5,0.4-2.3c0-0.2,0.1-0.3,0.3-0.3
		c1.2,0.1,2.4,0.1,3.6,0.2 M85.6,7.7c0.3,0,0.6-0.1,0.9-0.1c-0.3-0.1-0.6-0.2-0.8-0.3C85.6,7.3,85.6,7.5,85.6,7.7z"/>
	<path id="XMLID_165_" class="st1" d="M52.9,43.5c0.2,0.5-0.1,0.8-0.6,0.8c-0.1,0-0.2,0.1-0.3,0.1c-0.4,0.4-0.7,0.7-1,1.1
		c-0.4,0.4-0.9,0.5-1.4,0.3c-0.6-0.3-0.7-0.2-0.9,0.4c0.4,0.2,0.4,0.4,0,0.7c-0.6,0.4-1.2,0.8-1.8,1.2c-0.2,0.2-0.5,0.2-0.8,0.4
		c0,0.5-0.5,0.9-1.2,1.1c-0.2,0-0.4,0.1-0.4,0.3c0,0.1-0.1,0.2-0.2,0.2c-0.5,0.1-0.9,0.3-1.4,0.3c-0.3,0-0.5,0.1-0.8,0.3
		c-0.2,0.2-0.5,0.4-0.8,0.5c-0.2,0.1-0.4,0-0.6,0c-0.2,0.2-0.5,0.2-0.8,0c-0.2-0.1-0.4-0.2-0.6-0.3c-0.1,0-0.2,0-0.3,0
		c0.2,0.2,0.7,0.1,0.4,0.6c0,0,0.1,0.1,0.1,0.1c0.3,0.1,0.5,0.3,0.5,0.6c0,0.4-0.2,0.7-0.5,0.9c-0.5,0.2-1,0.4-1.5,0.5
		c-0.3,0.1-0.4,0-0.5-0.4c-0.3-0.1-0.6-0.2-1-0.3c0.2,0.2,0.4,0.4,0.6,0.6c0.4,0.4,0.4,0.6,0,0.9c-0.2,0.2-0.5,0.4-0.7,0.5
		c-0.2,0.1-0.4,0.2-0.6,0.2c-0.1,0.2-0.2,0.4-0.3,0.6c-0.2,0.4-0.5,0.5-0.9,0.2c-0.4-0.2-0.8-0.4-1.2-0.4c-0.5,0-1.1-0.7-1.2-1.4
		c0-0.3,0.1-0.5,0.1-0.8c0-0.3,0-0.7-0.1-1c-0.3-0.9-0.8-1.5-1.7-1.9c-0.7-0.4-1.1-0.9-1-1.8c0-0.2-0.1-0.4-0.1-0.6
		c-0.2-0.4-0.4-0.7-0.5-1.1c-0.1-0.3-0.3-0.6-0.3-1c0-0.5-0.3-0.8-0.7-1c-0.5-0.2-1-0.4-1.5-0.7c-0.2-0.1-0.4-0.3-0.5-0.5
		c-0.2-0.2-0.3-0.4-0.4-0.5c-0.2-0.2-0.4-0.4-0.4-0.6c0-0.1-0.1-0.2-0.2-0.3c-0.4-0.3-0.7-0.7-0.7-1.2c0-0.2-0.1-0.5-0.2-0.6
		c-0.5-0.5-1.1-1-1.8-1.1c-0.2-0.1-0.4-0.3-0.5-0.4c-0.5-1.1-1.3-1.8-2.3-2.4c-0.5-0.3-0.9-0.6-1.4-0.9c-0.1-0.1-0.2-0.3-0.3-0.4
		c-0.2-0.4-0.4-0.8-0.7-1.1c-0.5-0.5-0.9-1.1-1.1-1.7c-0.2-0.5-0.4-1-0.7-1.6c-0.1-0.3-0.3-0.5-0.6-0.5c-0.9-0.1-1.6-0.5-2.2-1.1
		c-0.5-0.5-1.2-0.9-1.9-1.3c-0.5-0.3-0.6-0.5-0.4-1c0.2-0.5,0.6-0.9,1-1.3c1-1.1,2.3-1.6,3.7-1.7c0.4,0,0.8-0.1,1.2-0.2
		c0.2,0,0.4-0.1,0.5-0.3c0.5-0.4,1.2-0.5,1.8-0.6c0.3-0.1,0.6-0.1,0.9-0.2c0.1,0,0.3-0.1,0.4-0.2c0.2-0.1,0.5-0.2,0.7-0.2
		c0.5,0,1,0.1,1.4,0.1c3.7,0.1,7.4,0.3,11.1,0.4c0.2,0,0.3,0,0.5,0c0.3,0,0.5,0.2,0.6,0.5c0,0.3,0.2,0.3,0.4,0.2
		c0.1,0,0.2-0.1,0.3-0.1c0.3-0.1,0.5,0,0.7,0.2c0.3,0.3,0.6,0.6,0.8,0.9c0.4,0.4,0.5,0.9,0.5,1.4c0,0.3,0.1,0.4,0.4,0.4
		c3.3,0.1,6.6,0.1,9.8,0.2c0.9,0,1.6,0.4,2.3,1c2.3,1.9,4.5,3.8,6.8,5.7c1,0.8,1.9,1.6,2.9,2.4c0.1,0.1,0.2,0.2,0.3,0.3
		c0.5,0.5,0.4,1-0.3,1.2c-1.7,0.6-3,1.7-4.1,3c-0.7,0.9-1.2,1.8-1.4,2.9C53.1,43.2,53,43.3,52.9,43.5z"/>
</g>
<g id="XMLID_66_">
	<path id="XMLID_67_" class="st0" d="M123,17.8v7.4h11.9v4.7H123v8.5h14.4v4.7H118v-30h19.4v4.7H123z"/>
	<path id="XMLID_69_" class="st0" d="M156.2,18.1v7.5h10.6v5h-10.6v12.5h-5v-30h18.1v5H156.2z"/>
	<path id="XMLID_71_" class="st0" d="M186.5,13.1v25.3h13.3v4.7h-18.3v-30H186.5z"/>
	<path id="XMLID_73_" class="st0" d="M228.3,36.6h-11.8l-2,6.5h-5.2l9.5-30h7.4l9.5,30h-5.2L228.3,36.6z M226.8,31.9l-4.5-13.9
		l-4.4,13.9H226.8z"/>
	<path id="XMLID_76_" class="st0" d="M266.3,34.2V13.1h5.1v30h-5.1l-13.9-21.2v21.2h-5.1v-30h5.1L266.3,34.2z"/>
	<path id="XMLID_78_" class="st0" d="M309.5,28.1c0,4-1.3,8.2-3.8,10.9c-2.5,2.8-6.2,4-10.1,4h-10.4v-30h10.5c4,0,7.5,1.3,9.9,4
		C308.3,19.9,309.5,23.9,309.5,28.1z M304.2,28.1c0-2.9-0.6-5.7-2.4-7.8c-1.7-1.9-3.7-2.5-6.2-2.5l-5.3,0v20.5l5.3,0
		c2.4-0.1,4.6-0.8,6.2-2.5C303.6,33.8,304.1,31.1,304.2,28.1z"/>
	<path id="XMLID_81_" class="st1" d="M349.3,28.9c0,4.1-1.3,7.7-3.5,10.3c-2.7,3.2-6.5,4.5-10.6,4.5c-4.4,0-8.2-1.7-10.7-4.9
		c-2.4-3.2-3.4-6.8-3.4-10.7c0-4,0.9-7.8,3.4-10.8c2.6-3.3,6.3-4.8,10.7-4.8c3.6,0,6.7,0.8,9.1,3c2.3,1.9,3.5,4.2,4.1,6.8l-5.5,0.8
		c-0.4-1.2-0.9-2.3-2-3.3c-1.4-1.4-3.3-2.1-5.5-2.1c-2.6,0-5.2,1-6.7,3.1c-1.5,2-2,4.7-2,7.4c0,2.7,0.5,5.3,2,7.4c1.5,2,4,3.1,6.7,3
		c2.2,0,4.1-0.7,5.5-2.1c1.4-1.4,2.2-3.4,2.4-5.1h-6.3v-4h12.1L349.3,28.9z"/>
	<path id="XMLID_83_" class="st1" d="M374.1,32.6h-7.2v10.5h-5v-30h12.4c3.3,0,5.3,0.9,7,2.5c2.1,2,3,4.2,3,7.2c0,2.8-1,5.3-2.7,6.9
		c-0.8,0.8-1.6,1.4-2.5,1.8l5.6,11.5h-5.7L374.1,32.6z M366.9,27.9h7.5c1.3,0,2.8-0.6,3.7-1.8c0.8-0.9,1.1-2.2,1.1-3.3
		c0-1.2-0.3-2.6-1.2-3.6c-0.8-1-2-1.4-3.6-1.4h-7.5V27.9z"/>
	<path id="XMLID_86_" class="st1" d="M398.8,38.8c-2.4-3-3.5-6.8-3.5-10.8c0-4,1-7.8,3.5-10.8c2.6-3.3,6.6-4.8,10.9-4.8
		s8.3,1.6,10.9,4.8c2.5,3.1,3.4,6.8,3.4,10.8c0,4.1-1,7.7-3.4,10.8c-2.7,3.3-6.8,4.9-10.9,4.9C405.4,43.7,401.3,42.1,398.8,38.8z
		 M416.7,35.8c1.6-2.1,2.1-5,2.1-7.7s-0.5-5.6-2.1-7.7c-1.6-2.1-4.2-3.2-6.9-3.2c-2.8,0-5.4,1-7,3.2c-1.6,2.1-2.2,5-2.1,7.7
		c0,2.8,0.5,5.6,2.1,7.7c1.6,2.1,4.2,3.2,7,3.2C412.4,39,415.1,37.9,416.7,35.8z"/>
	<path id="XMLID_89_" class="st1" d="M460.9,31.9c0,2.7-0.8,5.5-2.5,7.6c-2.2,2.8-5.8,4.2-9.5,4.2c-3.7,0-7.3-1.4-9.6-4.2
		c-1.6-2.1-2.5-5-2.5-7.6V13.1l5.1,0v18.4c0,1.8,0.4,3.3,1.5,4.8c1.2,1.8,3.4,2.7,5.6,2.7c2.1,0,4.2-1,5.5-2.7
		c1.1-1.5,1.4-2.9,1.4-4.8V13.1h5.1V31.9z"/>
	<path id="XMLID_91_" class="st1" d="M497.2,22.8c0,2.8-1,5.3-2.7,6.9c-1.9,2-4.4,2.8-7.4,2.8h-7.4v10.5h-5v-30h12.4
		c3.3,0,5.3,0.9,7,2.5C496.3,17.6,497.1,19.8,497.2,22.8z M492,22.8c0-1.2-0.3-2.6-1.2-3.6c-0.8-1-2-1.4-3.6-1.4h-7.5v10.1h7.5
		c1.3,0,2.8-0.6,3.7-1.8C491.7,25.2,492,23.9,492,22.8z"/>
</g>
</svg>
