<svg id="Layer_1" data-name="Layer 1" xmlns="http://www.w3.org/2000/svg" viewBox="0 0 150 150"><defs><style>.cls-1{fill:#002361;}.cls-2{fill:#1da7e0;}.cls-3{fill:#2f5182;}.cls-4{fill:#5487ba;}</style></defs><path class="cls-1" d="M108.18,81.14a16.81,16.81,0,0,1,1.37-1.29l2.45,8a12.29,12.29,0,1,0,18.85,10.4A12.81,12.81,0,0,0,120.62,86l10.71-3.66a21.18,21.18,0,0,1,7.65,16,20.43,20.43,0,0,1-20.43,20.43,21.32,21.32,0,0,1-20-14.61C99.11,96.71,103.07,86.5,108.18,81.14Z"/><path class="cls-2" d="M117.73,75.39q.55,0,1.11,0a23.28,23.28,0,0,1,14,4.89,1.14,1.14,0,0,1-.33,2l-13.62,4.65L115.39,76.4Z"/><path class="cls-3" d="M37.42,61.42l8.22,6.75a8,8,0,0,0,6.61,1.65l4.42,6.53-7.75.49a9.49,9.49,0,0,1-6.63-2.15L29.46,64.11Z"/><path class="cls-2" d="M96.66,59.44c-2.81,1.11-13.22,6.88-19,9.81A12.75,12.75,0,0,0,72,75.15l-1.29,2.69L55.84,60.65c10.64-14.5,17.91-10.91,27.57-8.72,6.88,1.56,14.72,6.94,14.72,6.94A5,5,0,0,0,96.66,59.44Z"/><path class="cls-1" d="M31.45,77.85a20.4,20.4,0,0,1,17,9.16L41,90.57a12.29,12.29,0,1,0,2.63,9.18l8.2-.4a20.43,20.43,0,1,1-20.4-21.5Z"/><path class="cls-2" d="M15.18,48.54H19.4a7.26,7.26,0,0,1,5,2l5.1,4.75,8.29,6.81-7.82,2.48a8.22,8.22,0,0,1-7.84-2.65l-8.4-10.17A1.94,1.94,0,0,1,15.18,48.54Z"/><path class="cls-4" d="M64.72,97.23a10.47,10.47,0,0,1,0-9.24l.07-.13-4.45-6.57L29.56,95.76h0a2.56,2.56,0,0,0,1.22,4.87l24.83-1.18-.19-.35a1,1,0,0,1,.91-1.5H64.9Z"/><path class="cls-3" d="M62,67.47l8.67,9.6L67.4,83.93A10.74,10.74,0,0,0,64,87.88L51.87,69.94Z"/><path class="cls-3" d="M104.82,62.48l-.82.35-2.13-6.41-5.63-3.68a3.4,3.4,0,0,1-1-4.77,3.55,3.55,0,0,1,4.86-1l6.64,4.35a3.43,3.43,0,0,1,1.38,1.8L110.1,59A14.8,14.8,0,0,1,104.82,62.48Z"/><path class="cls-3" d="M115.36,75.88l6.92,21.21a3.55,3.55,0,0,1-2.27,4.46,3.46,3.46,0,0,1-1.1.17,3.54,3.54,0,0,1-3.36-2.44l-6.37-19.52A28.38,28.38,0,0,1,115.36,75.88Z"/><path class="cls-4" d="M77.15,82.69a10.9,10.9,0,0,0-3.26-.5,11.3,11.3,0,0,0-6.49,1.74L72,74.38a12.75,12.75,0,0,1,5.73-5.9c5.75-2.93,16.16-8.19,19-9.3,4-1.56,8.24,3.56,8.24,3.56-7.09,3-14.69,6.9-20.09,9.73A14.61,14.61,0,0,0,77.15,82.69Z"/><path class="cls-3" d="M77.43,86.52a1,1,0,0,1-.6-.93,15.39,15.39,0,0,1,.32-3.1l0-.23L77,82.19A11,11,0,0,0,62.64,92.67a10.88,10.88,0,0,0,1.1,4.79l.07.14h3.87a1,1,0,0,1,.82.41,7.52,7.52,0,0,0,5.93,2.89h.5a7.51,7.51,0,0,0,2.5-14.37Z"/><path class="cls-2" d="M80.68,89.75h0a7.25,7.25,0,0,1-12,8.1,1.28,1.28,0,0,0-1-.51H55.82a1.29,1.29,0,0,0-1.06,2l8.31,11.93a1.29,1.29,0,0,0,1.05.55H96.8a1.28,1.28,0,0,0,1.27-1.13A96,96,0,0,1,101,96.08Z"/><path class="cls-2" d="M133.24,65.49c.29,0,.57,0,.85,0l-1.72-5.28a23.4,23.4,0,0,0-2-4.46l-5.53-.54a5.76,5.76,0,0,1-4.21-2.5L113,41.46l-1.12.69a2.23,2.23,0,0,0-.89,2.79c1.64,3.84,4.25,13.1-6.36,17.54C98.05,65.25,91.23,68.62,86,71.35a28.12,28.12,0,0,1,10.27,2.23,25.94,25.94,0,0,1,11.36,8.71c.19-.22.38-.43.58-.63,5.54-5.83,16.18-8.48,22.57-9.6-2.67-.49-4.56-1.72-4.56-3.18C126.19,67,129.35,65.49,133.24,65.49Z"/><path class="cls-4" d="M124.6,55.5A5.77,5.77,0,0,1,120.39,53l-7.68-11.34,2.26-1.4a2.28,2.28,0,0,1,2.88.44L127.71,52a24,24,0,0,1,2.85,4.07Z"/><path class="cls-2" d="M87.56,94.66A28,28,0,0,1,81.27,91a7.31,7.31,0,0,0-3.94-4.27,1.27,1.27,0,0,1-.76-1.17A15.38,15.38,0,0,1,84.81,72l1.67-.87a26.33,26.33,0,0,1,10,2.11,23.85,23.85,0,0,1,11.21,9c-3.15,3.59-5.34,9.06-6.84,14.33A24.59,24.59,0,0,1,87.56,94.66Z"/><path class="cls-1" d="M29.52,55.16a5.59,5.59,0,0,1,7.4-.91c7.36,5,18.92,6.4,18.92,6.4l6.49,7.18L51.87,69.94a7.82,7.82,0,0,1-6.5-1.63L29.46,55.24Z"/><path class="cls-1" d="M126,68.86c0-1.9,3.07-3.43,6.86-3.43a11.79,11.79,0,0,1,1.2,0l1,3.15a2.34,2.34,0,0,1-1.9,3c-.76.11-1.66.25-2.66.43C127.9,71.62,126,70.35,126,68.86Z"/></svg>