<svg id="Layer_1" data-name="Layer 1" xmlns="http://www.w3.org/2000/svg" viewBox="0 0 150 150"><defs><style>.cls-1{fill:#1da7e0;}.cls-2{fill:#ffd2aa;}.cls-3{fill:#002361;}.cls-4{fill:#177fbf;}</style></defs><path class="cls-1" d="M109.28,58.3v64.27H40.72V58.3L75,24Z"/><path class="cls-2" d="M126.41,96.71v14.87a4.29,4.29,0,0,1-1.91,3.57l-20.93,13.93a6.42,6.42,0,0,0-2.86,5.35v3a2.14,2.14,0,0,1-2.15,2.14H81.43a2.14,2.14,0,0,1-2.15-2.14v-14a12.86,12.86,0,0,1,3.77-9.09L95.39,102a4.55,4.55,0,0,1,6.43,6.43L97,113.31a3.7,3.7,0,0,0,4.5,5.8l15.33-9a2.13,2.13,0,0,0,1-1.85V96.71a4.29,4.29,0,0,1,8.57,0Z"/><path class="cls-2" d="M23.59,96.71v14.87a4.29,4.29,0,0,0,1.91,3.57l20.93,13.93a6.42,6.42,0,0,1,2.86,5.35v3a2.14,2.14,0,0,0,2.15,2.14H68.57a2.14,2.14,0,0,0,2.15-2.14v-14A12.86,12.86,0,0,0,67,114.37L54.61,102a4.55,4.55,0,1,0-6.43,6.43L53,113.31a3.7,3.7,0,0,1-4.5,5.8l-15.33-9a2.13,2.13,0,0,1-1.05-1.85V96.71a4.29,4.29,0,0,0-8.57,0Z"/><path class="cls-3" d="M80.47,88.37a2.14,2.14,0,0,0,0-4.28H76.18V70.94a8.57,8.57,0,1,0-4.28,0V99.08a2.14,2.14,0,1,0,4.28,0V96.94h4.29a2.14,2.14,0,0,0,0-4.28H76.18V88.37ZM74,67a4.29,4.29,0,1,1,4.28-4.28A4.29,4.29,0,0,1,74,67Z"/><path class="cls-4" d="M123.38,72.41a4.27,4.27,0,0,1-6.06,0L75,30.09,32.68,72.41a4.29,4.29,0,1,1-6.06-6.06L72,21A4.27,4.27,0,0,1,78,21l45.35,45.35A4.27,4.27,0,0,1,123.38,72.41Z"/></svg>