<?xml version="1.0" encoding="utf-8"?>
<!-- Generator: Adobe Illustrator 25.4.1, SVG Export Plug-In . SVG Version: 6.00 Build 0)  -->
<svg version="1.1" id="Layer_1" xmlns="http://www.w3.org/2000/svg" xmlns:xlink="http://www.w3.org/1999/xlink" x="0px" y="0px"
	 viewBox="0 0 784.5 150" style="enable-background:new 0 0 784.5 150;" xml:space="preserve">
<style type="text/css">
	.st0{fill:#FFCE00;}
</style>
<g>
	<g>
		<path class="st0" d="M146.5,58.5c-0.5-1.5-1.8-2.6-3.4-2.9l-44.5-6.5L78.8,8.9c-0.7-1.4-2.2-2.3-3.8-2.3c-1.6,0-3.1,0.9-3.8,2.3
			L51.3,49.2L6.9,55.7C5.3,55.9,4,57,3.5,58.5c-0.5,1.5-0.1,3.2,1.1,4.3l32.2,31.4l-7.6,44.3c-0.3,1.6,0.4,3.2,1.7,4.1
			c0.7,0.5,1.6,0.8,2.5,0.8c0.7,0,1.3-0.2,2-0.5L75,122l39.8,20.9c1.4,0.7,3.1,0.6,4.4-0.3c1.3-0.9,1.9-2.5,1.7-4.1l-7.6-44.3
			l32.2-31.4C146.6,61.7,147,60.1,146.5,58.5z"/>
	</g>
</g>
<g>
	<g>
		<path class="st0" d="M304.6,58.5c-0.5-1.5-1.8-2.6-3.4-2.9l-44.5-6.5L236.9,8.9c-0.7-1.4-2.2-2.3-3.8-2.3c-1.6,0-3.1,0.9-3.8,2.3
			l-19.9,40.3L165,55.7c-1.6,0.2-2.9,1.3-3.4,2.9c-0.5,1.5-0.1,3.2,1.1,4.3l32.2,31.4l-7.6,44.3c-0.3,1.6,0.4,3.2,1.7,4.1
			c0.7,0.5,1.6,0.8,2.5,0.8c0.7,0,1.3-0.2,2-0.5l39.8-20.9l39.8,20.9c1.4,0.7,3.1,0.6,4.4-0.3c1.3-0.9,1.9-2.5,1.7-4.1l-7.6-44.3
			l32.2-31.4C304.7,61.7,305.1,60.1,304.6,58.5z"/>
	</g>
</g>
<g>
	<g>
		<path class="st0" d="M462.7,58.5c-0.5-1.5-1.8-2.6-3.4-2.9l-44.5-6.5L395,8.9c-0.7-1.4-2.2-2.3-3.8-2.3c-1.6,0-3.1,0.9-3.8,2.3
			l-19.9,40.3l-44.5,6.5c-1.6,0.2-2.9,1.3-3.4,2.9c-0.5,1.5-0.1,3.2,1.1,4.3L353,94.2l-7.6,44.3c-0.3,1.6,0.4,3.2,1.7,4.1
			c0.7,0.5,1.6,0.8,2.5,0.8c0.7,0,1.3-0.2,2-0.5l39.8-20.9l39.8,20.9c1.4,0.7,3.1,0.6,4.4-0.3c1.3-0.9,1.9-2.5,1.7-4.1l-7.6-44.3
			l32.2-31.4C462.8,61.7,463.2,60.1,462.7,58.5z"/>
	</g>
</g>
<g>
	<g>
		<path class="st0" d="M620.9,58.5c-0.5-1.5-1.8-2.6-3.4-2.9L573,49.2L553.1,8.9c-0.7-1.4-2.2-2.3-3.8-2.3c-1.6,0-3.1,0.9-3.8,2.3
			l-19.9,40.3l-44.5,6.5c-1.6,0.2-2.9,1.3-3.4,2.9c-0.5,1.5-0.1,3.2,1.1,4.3l32.2,31.4l-7.6,44.3c-0.3,1.6,0.4,3.2,1.7,4.1
			c0.7,0.5,1.6,0.8,2.5,0.8c0.7,0,1.3-0.2,2-0.5l39.8-20.9l39.8,20.9c1.4,0.7,3.1,0.6,4.4-0.3c1.3-0.9,1.9-2.5,1.7-4.1l-7.6-44.3
			l32.2-31.4C620.9,61.7,621.3,60.1,620.9,58.5z"/>
	</g>
</g>
<g>
	<g>
		<path class="st0" d="M779,58.5c-0.5-1.5-1.8-2.6-3.4-2.9l-44.5-6.5L711.2,8.9c-0.7-1.4-2.2-2.3-3.8-2.3c-1.6,0-3.1,0.9-3.8,2.3
			l-19.9,40.3l-44.5,6.5c-1.6,0.2-2.9,1.3-3.4,2.9c-0.5,1.5-0.1,3.2,1.1,4.3l32.2,31.4l-7.6,44.3c-0.3,1.6,0.4,3.2,1.7,4.1
			c0.7,0.5,1.6,0.8,2.5,0.8c0.7,0,1.3-0.2,2-0.5l39.8-20.9l39.8,20.9c1.4,0.7,3.1,0.6,4.4-0.3c1.3-0.9,1.9-2.5,1.7-4.1l-7.6-44.3
			l32.2-31.4C779.1,61.7,779.5,60.1,779,58.5z"/>
	</g>
</g>
</svg>
