<svg id="Layer_1" data-name="Layer 1" xmlns="http://www.w3.org/2000/svg" viewBox="0 0 150 150"><defs><style>.cls-1{fill:#002361;}.cls-2{fill:#1da7e0;}.cls-3{fill:#177fbf;}</style></defs><path class="cls-1" d="M76.05,41.45v66.37a4.59,4.59,0,0,1-9.18,0v-3.47H62.1v3.47a9.36,9.36,0,0,0,18.72,0V41.45Z"/><path class="cls-2" d="M78.43,45.4A41.29,41.29,0,0,0,37.67,80.17h0a38,38,0,0,1,27.18,0h0a38,38,0,0,1,27.17,0h0a38,38,0,0,1,27.18,0h0A41.29,41.29,0,0,0,78.43,45.4Z"/><path class="cls-3" d="M78.43,45.4C70,53.09,64.75,66.5,64.85,80.17h0a38,38,0,0,1,27.17,0h0C92.12,66.5,86.88,53.09,78.43,45.4Z"/><path class="cls-2" d="M78.43,45.4C86.88,53.09,92.12,66.5,92,80.17a38,38,0,0,1,27.18,0h0A41.29,41.29,0,0,0,78.43,45.4Z"/><path class="cls-3" d="M66.1,68.27h0a34.42,34.42,0,0,0-24.6,0,41,41,0,0,0-3.83,11.93,38,38,0,0,1,27.18,0,53.64,53.64,0,0,1,1.26-11.91Z"/><path class="cls-2" d="M66.11,68.26a53.64,53.64,0,0,0-1.26,11.91h0a38,38,0,0,1,27.17,0h0a53.64,53.64,0,0,0-1.26-11.91A34.45,34.45,0,0,0,66.11,68.26Z"/><path class="cls-3" d="M90.77,68.27h0A53.64,53.64,0,0,1,92,80.17a38,38,0,0,1,27.18,0,41,41,0,0,0-3.83-11.93A34.42,34.42,0,0,0,90.77,68.27Z"/></svg>