<?xml version="1.0" encoding="utf-8"?>
<!-- Generator: Adobe Illustrator 25.4.1, SVG Export Plug-In . SVG Version: 6.00 Build 0)  -->
<svg version="1.1" id="Layer_1" xmlns="http://www.w3.org/2000/svg" xmlns:xlink="http://www.w3.org/1999/xlink" x="0px" y="0px"
	 viewBox="0 0 150 150" style="enable-background:new 0 0 150 150;" xml:space="preserve">
<style type="text/css">
	.st0{fill:#FFFFFF;}
	.st1{fill:#1DA7E0;}
</style>
<g>
	<path class="st0" d="M53.2,116.8l-21.9,12c-1.3,0.7-2.4,1.6-3.5,2.5C40.5,142,57,148.5,75.1,148.5c17.9,0,34.3-6.4,47.1-17
		c-1.2-1-2.5-1.9-3.9-2.6l-23.5-11.7c-3-1.5-5-4.6-5-8v-9.2c0.7-0.8,1.4-1.7,2.2-2.9c3.2-4.5,5.6-9.5,7.3-14.7c3-0.9,5.2-3.7,5.2-7
		v-9.8c0-2.2-1-4.1-2.5-5.5V45.8c0,0,2.9-22.1-27.1-22.1S48,45.8,48,45.8V60c-1.5,1.4-2.5,3.3-2.5,5.5v9.8c0,2.6,1.4,4.9,3.4,6.2
		c2.5,10.7,8.9,18.4,8.9,18.4v9C57.9,112.2,56.1,115.2,53.2,116.8z"/>
	<g>
		<path class="st1" d="M76.2,1.5C35.6,0.8,2.1,33.1,1.4,73.7c-0.4,23,9.9,43.7,26.2,57.5c1.1-0.9,2.2-1.8,3.5-2.5l21.9-12
			c2.9-1.6,4.7-4.6,4.7-7.9v-9c0,0-6.4-7.7-8.9-18.4c-2-1.3-3.4-3.6-3.4-6.2v-9.8c0-2.2,1-4.1,2.5-5.5V45.8c0,0-2.9-22.1,27.1-22.1
			S102,45.8,102,45.8V60c1.5,1.4,2.5,3.3,2.5,5.5v9.8c0,3.3-2.2,6.1-5.2,7c-1.7,5.2-4.1,10.2-7.3,14.7c-0.8,1.1-1.6,2.1-2.2,2.9v9.2
			c0,3.4,1.9,6.5,5,8l23.5,11.7c1.4,0.7,2.7,1.6,3.9,2.6c15.8-13.2,26.1-33,26.5-55.2C149.2,35.7,116.8,2.2,76.2,1.5z"/>
	</g>
</g>
</svg>
